<svg xmlns="http://www.w3.org/2000/svg" viewBox="0 0 314 32">
	<title>North Dakota State University</title>
	<path fill="#ffc72a" d="M80.806.785h1.258c-.081 3.574-.016 7.602-.045 10.804h-1.456c-.726-2.385-1.427-4.793-2.857-6.588-1.408-1.767-3.298-3.226-6.394-3.005-2.823.204-5.082 2.443-4.699 5.96.035.322.245.965.436 1.307 1.155 2.081 3.54 2.957 6.103 3.78 2.534.814 5.068 1.544 6.975 2.905 2.053 1.464 3.454 3.44 3.44 6.491-.02 4.362-3.022 7.334-6.104 8.721-1.095.492-2.473.771-4.069.677-2.403-.142-3.98-.866-5.619-1.792-.475-.269-1.048-.754-1.744-.728-1.565.065-1.264 2.27-3.535 1.747-.08-3.668-.1-7.396-.098-11.144.456-.109 1.112-.019 1.647-.048 1.01 4.106 2.345 7.211 5.474 9.108.885.535 2.147 1.096 3.633 1.21 4.429.341 7.556-3.175 6.298-7.217-1.556-5.002-7.821-4.541-12.255-6.977-1.468-.805-2.677-1.959-3.439-3.536-.716-1.476-1.26-3.627-.63-5.765.542-1.842 2.018-3.768 3.536-4.747 1.227-.788 3.087-1.489 4.844-1.55 2.459-.085 4.374.783 5.957 1.697.439.253.824.864 1.502.823 1.04-.064 1.136-1.595 1.841-2.133M.104.835c2.488-.003 5.316.01 7.75 0 5.781 7.314 11.18 15.01 16.857 22.428.088-2.471.049-5.407.049-8.382 0-2.932.151-5.928 0-8.426-.162-2.679-1.697-3.942-4.603-3.924.03-.536-.06-1.191.049-1.647 3.639-.037 7.133.068 10.754.049.11.453.019 1.112.048 1.645-2.218.072-4.052.853-4.262 3.005-.193 1.972 0 4.213 0 6.442v19.328c-.715-.031-1.544.059-2.18-.049-5.905-7.835-11.662-15.821-17.632-23.591-.079 4.094-.049 9.865-.049 14.677 0 2.043-.284 4.308.436 5.523.812 1.371 2.393 1.613 4.408 1.793-.009.555.045 1.174-.096 1.598-3.994-.032-7.54.083-11.529.049-.11-.44-.019-1.079-.049-1.599 2.157-.116 4.369-.667 4.65-2.81.116-.887 0-1.852 0-2.808V7.567c0-.955.179-2.008.048-2.712-.095-.519-.787-1.255-1.21-1.547-.911-.633-2.345-.666-3.538-.777-.027-.664.063-1.073 0-1.551C.004.897.043.855.104.835m41.222 3.244c-.316.659-.29 1.799-.29 2.811v18.601c0 1.074-.062 2.196.242 2.858.499 1.09 1.84 1.287 3.246 1.405 3.236.275 6.066-.268 7.847-1.793 1.191-1.019 1.974-2.394 2.471-4.019.986-3.232.952-8.241.629-12.013-.185-2.168-.587-3.741-1.405-5.135-1.582-2.701-4.402-4.286-8.962-4.069-1.717.082-3.121-.006-3.778 1.354zM32.171.933c7.398.306 15.63-.881 20.782 1.452 2.421 1.096 4.501 3.003 5.958 5.182 1.528 2.288 2.325 5.169 2.325 8.771 0 6.951-3.455 11.513-8.38 13.756-2.723 1.24-6.053 1.259-9.882 1.259-3.706 0-7.268-.074-10.949-.049a5.417 5.417 0 0 1 0-1.598c1.789-.098 3.516-.088 4.021-1.599.411-1.23.194-3.711.194-5.62 0-3.658.017-7.955.048-11.335.017-1.833.118-3.711-.048-5.618-.113-1.289-.74-2.375-1.792-2.712-.664-.213-1.801-.207-2.326-.244-.083-.431-.036-.996-.048-1.501.042-.039.03-.133.097-.144zm82.156-.061c.028.428-.02 1.124 0 1.696-1.938.088-3.469.425-4.021 1.84-.338.867-.243 2.161-.243 3.295v10.512c0 2.316.26 4.924-.193 6.831-1.232 5.191-6.966 8.009-13.755 6.587-3.608-.755-6.828-2.781-7.897-6.103-.46-1.425-.436-3.231-.436-5.086 0-3.693-.05-7.083-.05-10.9 0-.875.045-1.8 0-2.762-.089-1.924-.103-3.5-1.597-4.02-.833-.291-1.774-.098-2.762-.291a40.588 40.588 0 0 1 0-1.599h13.37c-.01.763.002 1.045-.048 1.696-1.991-.042-3.56.09-4.119 1.404-.255.605-.173 1.554-.144 2.327.097 2.539-.012 5.57 0 7.75.009 1.779.023 3.599.048 5.183.03 1.834-.137 3.527.096 5.183.58 4.084 4.432 6.361 9.108 5.571 2.908-.494 5.249-2.333 6.103-4.94.49-1.494.34-3.326.34-5.138 0-3.604-.049-7.232-.049-10.509 0-2.717.169-5.4-1.743-6.394-.79-.411-1.786-.298-2.956-.484V.872c3.691.057 7.644-.118 10.948 0"/>
	<path fill="#fff" d="M124.816.66h.98l9.662 12.183V.66h1v14.003h-.78l-9.862-12.442v12.442h-1V.66m27.882 7.041v-.039c0-3.461-2.52-6.302-5.981-6.302s-5.941 2.8-5.941 6.261v.041c0 3.461 2.52 6.301 5.981 6.301s5.941-2.801 5.941-6.262zm-13.002 0v-.039c0-3.821 2.82-7.242 7.061-7.242s7.022 3.381 7.022 7.201c.02.021.02.021 0 .041 0 3.82-2.821 7.241-7.062 7.241s-7.021-3.38-7.021-7.202zm23.081.221c2.34 0 4.08-1.181 4.08-3.201v-.039c0-1.881-1.48-3.062-4.02-3.062h-4.781v6.302h4.721zM157.016.66h5.88c1.721 0 3.101.54 3.942 1.381a3.69 3.69 0 0 1 1.059 2.6v.041c0 2.34-1.74 3.679-4.1 4l4.621 5.981h-1.32l-4.461-5.802h-4.581v5.802h-1.04V.66zm17.839.96h-4.88V.66h10.802v.96h-4.881v13.043h-1.041V1.62m8.78-.96h1.041v6.482h8.962V.66h1.04v14.003h-1.04V8.102h-8.962v6.561h-1.041V.66m25.061 13.043c3.902 0 6.362-2.66 6.362-6.002v-.039c0-3.321-2.46-6.042-6.362-6.042h-3.62v12.083h3.62zM204.035.66h4.661c4.402 0 7.442 3.021 7.442 6.961v.041c0 3.941-3.04 7.001-7.442 7.001h-4.661V.66zm23.924 9.143L224.278 1.7l-3.701 8.103h7.382zM223.798.561h1l6.521 14.102h-1.139l-1.781-3.921h-8.261l-1.782 3.921h-1.08L223.798.561zm10.179.099h1.041v9.202L243.939.66h1.42l-6.121 6.182 6.381 7.821h-1.36l-5.761-7.081-3.48 3.521v3.56h-1.041V.66m25.38 7.041v-.039c0-3.461-2.52-6.302-5.981-6.302-3.46 0-5.94 2.8-5.94 6.261v.041c0 3.461 2.52 6.301 5.98 6.301 3.461 0 5.941-2.801 5.941-6.262zm-13.003 0v-.039c0-3.821 2.822-7.242 7.062-7.242 4.241 0 7.022 3.381 7.022 7.201.02.021.02.021 0 .041 0 3.82-2.821 7.241-7.062 7.241-4.24 0-7.022-3.38-7.022-7.202zm20.103-6.081h-4.881V.66h10.803v.96h-4.881v13.043h-1.041V1.62m16.46 8.183L279.236 1.7l-3.701 8.103h7.382zM278.756.561h1l6.521 14.102h-1.139l-1.781-3.921h-8.261l-1.782 3.921h-1.08L278.756.561zm-154.84 28.562l.68-.781c1.54 1.421 2.96 2.081 5.021 2.081 2.1 0 3.541-1.181 3.541-2.78v-.04c0-1.481-.781-2.341-3.961-2.982-3.361-.68-4.721-1.82-4.721-3.94v-.04c0-2.08 1.9-3.681 4.501-3.681 2.04 0 3.38.56 4.801 1.7l-.66.821c-1.321-1.141-2.641-1.581-4.181-1.581-2.061 0-3.421 1.18-3.421 2.641v.04c0 1.48.76 2.38 4.081 3.061 3.24.66 4.601 1.82 4.601 3.86v.041c0 2.26-1.941 3.82-4.641 3.82-2.241 0-3.961-.74-5.641-2.24m17.083-11.003h-4.882v-.96h10.802v.96h-4.88v13.043h-1.04V18.12m16.56 8.183l-3.682-8.103-3.701 8.103h7.383zm-4.162-9.242h1l6.522 14.102h-1.141l-1.78-3.921h-8.262l-1.78 3.921h-1.08l6.521-14.102zm12.358 1.059h-4.882v-.96h10.803v.96h-4.881v13.043h-1.04V18.12m9.099-.96h9.962v.96h-8.921v5.501h8.021v.961h-8.021v5.621h9.021v.96h-10.062V17.16m18.78 8.182V17.16h1.04v8.082c0 3.301 1.78 5.201 4.741 5.201 2.841 0 4.661-1.72 4.661-5.101V17.16h1.04v8.062c0 4.02-2.341 6.161-5.741 6.161-3.36 0-5.741-2.12-5.741-6.041m15.06-8.182h.981l9.662 12.183V17.16h1v14.003h-.78l-9.862-12.442v12.442h-1.001V17.16m15.34 14.003h1.04V17.16h-1.04zm3.94-14.003h1.16l5.481 12.883 5.501-12.883h1.101l-6.161 14.104h-.921l-6.161-14.104m16 0h9.963v.96h-8.922v5.501h8.021v.961h-8.021v5.621h9.021v.96h-10.062V17.16m18.962 7.262c2.34 0 4.081-1.181 4.081-3.201v-.039c0-1.881-1.481-3.062-4.022-3.062h-4.78v6.302h4.721zm-5.762-7.262h5.882c1.719 0 3.1.54 3.94 1.381.66.66 1.061 1.6 1.061 2.6v.041c0 2.34-1.741 3.679-4.101 4l4.62 5.981h-1.32l-4.461-5.802h-4.58v5.802h-1.041V17.16zm13.36 11.963l.68-.781c1.54 1.421 2.961 2.081 5.021 2.081 2.1 0 3.54-1.181 3.54-2.78v-.04c0-1.481-.78-2.341-3.961-2.982-3.36-.68-4.72-1.82-4.72-3.94v-.04c0-2.08 1.9-3.681 4.501-3.681 2.041 0 3.381.56 4.801 1.7l-.661.821c-1.32-1.141-2.64-1.581-4.18-1.581-2.061 0-3.421 1.18-3.421 2.641v.04c0 1.48.761 2.38 4.081 3.061 3.241.66 4.601 1.82 4.601 3.86v.041c0 2.26-1.94 3.82-4.641 3.82-2.24 0-3.961-.74-5.641-2.24m13.64 2.04h1.04V17.16h-1.04zm9.02-13.043h-4.881v-.96h10.803v.96h-4.881v13.043h-1.041V18.12m13.441 7.502l-6.002-8.462h1.301l5.241 7.522 5.261-7.522h1.24l-6.001 8.442v5.561h-1.04v-5.541"/>
</svg>